<?xml version="1.0" standalone="no"?>
<!DOCTYPE svg PUBLIC "-//W3C//DTD SVG 20010904//EN"
 "http://www.w3.org/TR/2001/REC-SVG-20010904/DTD/svg10.dtd">
<svg version="1.0" xmlns="http://www.w3.org/2000/svg"
 width="300.000000pt" height="210.000000pt" viewBox="0 0 300.000000 210.000000"
 preserveAspectRatio="xMidYMid meet">
<metadata>
Created by potrace 1.10, written by Peter Selinger 2001-2011
</metadata>
<g transform="translate(0.000000,210.000000) scale(0.100000,-0.100000)"
fill="#000000" stroke="none">
<path d="M1978 1625 c-7 -9 -24 -27 -38 -40 -20 -20 -23 -28 -14 -43 9 -13 28
-18 85 -20 96 -4 119 2 119 31 -1 22 -57 67 -85 67 -8 0 -17 5 -20 10 -9 15
-32 12 -47 -5z m47 -15 c3 -5 15 -10 26 -10 11 0 22 -7 25 -15 4 -8 15 -15 25
-15 10 0 19 -7 19 -15 0 -13 -15 -15 -92 -13 -55 2 -92 7 -91 13 1 6 11 11 23
13 14 2 20 11 20 28 0 17 6 24 19 24 11 0 23 -4 26 -10z"/>
<path d="M1477 1599 c-44 -46 -31 -59 57 -59 50 0 76 4 79 13 6 18 -3 37 -19
37 -8 0 -14 5 -14 10 0 6 -9 10 -19 10 -11 0 -23 5 -26 10 -10 17 -29 10 -58
-21z m75 1 c10 0 18 -4 18 -10 0 -5 7 -10 15 -10 8 0 15 -7 15 -15 0 -12 -14
-15 -65 -15 -51 0 -65 3 -65 15 0 8 6 15 14 15 7 0 16 10 20 22 4 18 8 20 18
10 6 -6 20 -12 30 -12z"/>
<path d="M876 1611 c-3 -5 -15 -7 -26 -4 -11 3 -20 1 -20 -5 0 -18 45 -18 63
0 13 14 14 18 3 18 -8 0 -17 -4 -20 -9z"/>
<path d="M1130 1584 c0 -26 -11 -51 -40 -91 -33 -47 -40 -64 -40 -104 0 -32
-5 -49 -15 -53 -11 -4 -15 -21 -15 -66 l0 -60 -64 0 c-49 0 -65 -4 -70 -16 -3
-9 -6 -74 -6 -145 l0 -129 -42 0 -43 0 3 105 3 105 -25 0 c-24 0 -26 3 -26 45
l0 45 -50 0 -50 0 0 -160 c0 -146 -2 -160 -17 -160 -16 0 -18 10 -18 72 l0 73
-60 0 -60 0 -3 -147 c-1 -88 -7 -148 -12 -148 -6 0 -10 36 -10 83 0 45 -3 99
-6 120 l-7 37 -52 0 -52 0 -7 -37 c-3 -21 -6 -75 -6 -120 l0 -83 -70 0 -70 0
0 -29 c0 -29 -2 -30 -52 -33 -52 -3 -53 -4 -56 -35 l-3 -33 55 0 56 0 0 -89 0
-90 -32 -4 c-18 -2 592 -4 1357 -4 765 0 1380 2 1368 4 -21 4 -23 10 -23 79 0
59 -3 74 -15 74 -13 0 -15 21 -15 130 0 123 -1 130 -20 130 -17 0 -20 7 -20
50 l0 50 -40 0 -40 0 0 -160 c0 -136 -2 -160 -15 -160 -12 0 -15 19 -15 115 0
70 -4 115 -10 115 -5 0 -10 7 -10 15 0 19 -105 22 -117 3 -4 -7 -10 -67 -13
-132 -3 -83 -9 -121 -17 -124 -10 -3 -13 43 -13 207 0 141 -3 211 -11 211 -5
0 -44 -25 -85 -55 l-74 -55 0 -246 c0 -135 -3 -243 -8 -240 -4 2 -6 180 -5
395 l3 391 -24 0 c-21 0 -25 6 -28 33 -2 26 -8 33 -29 35 -23 3 -27 11 -44 77
-10 41 -21 75 -25 75 -4 0 -12 -26 -19 -57 -19 -91 -20 -93 -47 -93 -21 0 -24
-5 -24 -35 0 -31 -3 -35 -25 -35 -25 0 -25 0 -25 -100 l0 -100 -40 0 -40 0 0
134 0 134 -34 26 c-19 14 -39 26 -45 26 -7 0 -9 25 -4 75 5 66 4 75 -11 75
-13 0 -16 -12 -16 -75 0 -46 -4 -75 -11 -75 -5 0 -26 -12 -45 -27 -33 -27 -34
-31 -34 -95 0 -39 -4 -68 -10 -68 -6 0 -10 32 -10 76 0 74 -11 104 -39 104 -6
0 -11 18 -11 40 0 29 -4 40 -15 40 -11 0 -15 -11 -15 -38 0 -26 -6 -42 -20
-52 -17 -12 -20 -26 -20 -92 0 -45 -4 -78 -10 -78 -6 0 -10 33 -10 78 0 78 0
79 -52 154 -29 41 -57 76 -62 78 -5 1 -33 -33 -62 -76 l-54 -78 -1 -100 0
-101 -27 53 c-14 28 -29 52 -32 52 -9 0 -52 -92 -46 -97 3 -3 13 11 22 31 10
20 20 36 23 36 6 0 51 -75 51 -84 0 -4 -22 -6 -49 -6 -35 0 -51 4 -55 16 -3 9
-6 63 -6 120 0 86 -3 104 -15 104 -11 0 -15 13 -15 54 0 47 -5 61 -35 100 -26
35 -35 56 -35 86 0 22 -4 40 -10 40 -5 0 -10 -16 -10 -36z m42 -94 l28 -40
-61 0 c-45 0 -58 3 -53 13 17 28 48 67 53 67 3 -1 18 -19 33 -40z m377 -122
l32 -48 -96 0 c-76 0 -94 3 -88 13 4 7 25 39 47 70 l38 57 17 -22 c10 -13 32
-44 50 -70z m-339 23 c0 -34 -4 -51 -15 -55 -11 -4 -15 -21 -15 -61 0 -30 -4
-55 -10 -55 -5 0 -10 9 -10 20 0 15 -7 20 -25 20 -18 0 -25 -5 -25 -20 0 -11
-4 -20 -10 -20 -6 0 -10 27 -10 60 0 33 -4 60 -10 60 -5 0 -10 23 -10 50 l0
50 70 0 70 0 0 -49z m1000 -88 c0 -2 -13 -3 -29 -3 -29 0 -29 0 -19 43 17 72
20 74 34 17 7 -30 13 -56 14 -57z m-300 17 l25 -20 -75 0 -75 0 25 20 c14 11
36 20 50 20 14 0 36 -9 50 -20z m-830 -53 c0 -30 3 -56 6 -60 11 -11 34 5 34
24 0 10 7 19 15 19 8 0 15 -9 15 -20 0 -15 7 -20 25 -20 24 0 25 3 25 55 0 48
2 55 20 55 20 0 20 -7 20 -355 0 -195 -4 -355 -8 -355 -17 0 -22 13 -10 27 9
11 9 16 -1 23 -10 5 -10 9 -2 15 9 5 9 10 1 20 -8 10 -7 15 2 19 10 5 10 7 0
12 -6 3 -9 11 -5 17 4 6 8 21 9 34 2 19 -2 23 -29 25 l-32 1 31 4 c26 3 31 8
31 34 0 28 -1 29 -56 31 l-56 2 58 3 c89 6 67 18 -33 18 -49 0 -90 -3 -90 -7
0 -5 15 -9 33 -10 l32 -1 -32 -4 c-34 -4 -35 -6 -48 -85 -5 -34 -9 -38 -37
-38 l-31 0 5 88 5 88 -43 -1 -44 -1 0 118 0 118 65 0 65 0 0 -152 c0 -83 3
-148 8 -144 4 4 7 80 8 169 2 291 1 287 24 287 18 0 20 -7 20 -53z m510 -307
l0 -350 -105 0 -105 0 0 350 0 350 105 0 105 0 0 -350z m138 273 l3 -73 -51 0
-50 0 0 76 0 75 48 -3 47 -3 3 -72z m222 39 c0 -16 -19 -36 -27 -29 -4 5 -1
12 7 17 10 7 -14 10 -70 10 -59 0 -80 -3 -70 -10 13 -9 13 -11 0 -20 -10 -7
12 -10 73 -10 48 0 87 -3 87 -7 0 -16 -19 -37 -27 -30 -4 5 -1 12 7 17 10 7
-13 10 -67 10 -52 0 -83 -4 -83 -11 0 -5 5 -7 10 -4 6 3 10 2 10 -4 0 -5 -6
-12 -12 -14 -7 -3 26 -6 75 -6 48 -1 87 -4 87 -8 0 -5 -38 -7 -85 -5 -59 2
-85 0 -85 -8 0 -6 5 -8 10 -5 6 3 10 2 10 -4 0 -5 -6 -12 -12 -14 -7 -3 26 -6
75 -6 54 -1 87 -5 87 -12 0 -5 -4 -8 -9 -4 -6 3 -9 -4 -8 -15 1 -11 5 -20 9
-20 4 0 8 -4 8 -10 0 -5 -16 -10 -35 -10 -30 0 -35 -3 -34 -22 1 -17 2 -19 6
-5 2 9 9 17 15 17 5 0 7 -7 4 -16 -5 -13 -1 -15 19 -12 14 3 25 1 25 -3 0 -5
-39 -9 -87 -10 -49 0 -82 -3 -75 -6 6 -2 12 -9 12 -14 0 -6 -4 -7 -10 -4 -5 3
-10 1 -10 -4 0 -7 31 -11 83 -11 54 0 77 3 67 10 -8 5 -11 12 -7 17 8 7 27
-14 27 -29 0 -5 -39 -8 -87 -8 -61 0 -83 -3 -73 -10 13 -9 13 -11 0 -20 -10
-7 11 -10 70 -10 56 0 80 3 70 10 -8 5 -11 12 -7 16 12 13 21 -5 23 -49 3 -44
-9 -77 -23 -64 -4 5 -1 12 7 17 10 7 -13 10 -67 10 -52 0 -83 -4 -83 -11 0 -5
5 -7 10 -4 6 3 10 2 10 -4 0 -5 -6 -12 -12 -14 -7 -3 26 -6 75 -6 48 -1 87 -4
87 -8 0 -5 -38 -7 -85 -5 -59 2 -85 0 -85 -8 0 -6 5 -8 10 -5 6 3 10 2 10 -4
0 -5 -6 -12 -12 -14 -7 -3 26 -6 75 -6 l87 -1 0 -60 c0 -38 -4 -60 -11 -60 -8
0 -10 14 -6 40 l5 40 -44 0 c-43 0 -44 -1 -38 -27 3 -16 7 -34 10 -40 2 -8 -5
-13 -16 -13 -11 0 -20 7 -20 15 0 10 -10 15 -30 15 l-30 0 0 298 c0 164 2 301
4 303 7 7 176 -2 176 -9z m293 9 c11 -1 17 -9 17 -26 0 -25 -1 -25 -80 -25
-78 0 -80 1 -80 24 0 27 16 33 85 29 22 -1 48 -2 58 -2z m67 -451 c0 -339 -2
-390 -15 -390 -13 0 -15 50 -17 368 l-3 367 -92 3 -93 3 0 -371 c0 -363 0
-370 -20 -370 -20 0 -20 7 -20 390 l0 390 130 0 130 0 0 -390z m-1570 340 c0
-40 0 -40 -40 -40 -40 0 -40 0 -40 40 0 40 0 40 40 40 40 0 40 0 40 -40z m278
13 c3 -10 -14 -13 -62 -13 -55 0 -64 2 -59 15 7 20 114 17 121 -2z m1242 -378
l0 -365 -80 0 -80 0 0 365 0 365 80 0 80 0 0 -365z m-500 118 c0 -126 -3 -238
-6 -250 -4 -14 -14 -23 -27 -23 -18 0 -19 5 -15 65 l6 65 -42 0 -41 0 3 -170
c3 -166 3 -170 -17 -170 -21 0 -21 3 -21 355 l0 355 80 0 80 0 0 -227z m-980
97 c0 -90 -2 -100 -18 -100 -17 0 -18 -8 -14 -85 4 -74 2 -85 -12 -85 -13 0
-16 12 -16 68 0 37 -3 77 -6 90 -7 26 -41 30 -47 5 -3 -10 -5 33 -6 95 l-1
112 60 0 60 0 0 -100z m590 -255 c0 -210 -4 -325 -10 -325 -5 0 -10 9 -10 20
0 33 -37 97 -70 122 l-30 22 0 243 0 243 60 0 60 0 0 -325z m-770 200 c0 -63
-1 -65 -25 -65 -24 0 -25 -2 -25 -75 0 -67 -2 -75 -19 -75 -11 0 -21 9 -25 23
-8 30 -8 242 1 250 3 4 26 7 50 7 l43 0 0 -65z m1440 -115 l0 -170 -34 0 c-24
0 -36 -5 -39 -17 -3 -10 -5 66 -6 170 l-1 187 40 0 40 0 0 -170z m450 116 c0
-48 -2 -55 -22 -58 -36 -5 -34 -28 4 -30 l33 -1 -33 -4 c-37 -5 -39 -26 -4
-31 12 -2 22 -8 22 -14 0 -6 -10 -8 -25 -4 -14 4 -25 2 -25 -4 0 -5 15 -11 33
-12 l32 -1 -33 -4 c-38 -5 -38 -24 -1 -34 24 -7 24 -7 -3 -8 -16 -1 -28 -5
-28 -11 0 -5 12 -10 28 -11 27 -1 27 -1 3 -8 -38 -10 -38 -31 1 -33 l33 -1
-32 -4 c-18 -2 -33 -9 -33 -14 0 -5 11 -7 25 -3 21 5 25 3 25 -15 0 -13 -6
-21 -17 -21 -16 0 -16 2 -3 11 12 8 12 10 -4 7 -35 -5 -30 -28 6 -30 l33 -1
-33 -4 c-32 -4 -40 -22 -12 -31 7 -3 10 0 6 7 -4 6 -1 11 8 11 10 0 16 -9 16
-21 0 -18 -4 -20 -25 -15 -14 4 -25 2 -25 -4 0 -5 12 -11 28 -11 l27 -2 -28
-4 c-33 -5 -31 -25 4 -34 24 -7 24 -7 -3 -8 -35 -1 -37 -21 -3 -21 20 0 25 -5
25 -25 0 -24 -2 -25 -70 -25 -68 0 -70 1 -70 25 0 20 5 25 25 25 34 0 32 20
-2 21 l-28 2 28 4 c15 2 27 11 27 19 0 8 -11 15 -27 15 l-28 2 28 4 c15 2 27
8 27 12 0 5 -11 6 -25 3 -20 -3 -25 0 -25 17 0 15 6 21 21 21 11 0 17 -4 14
-10 -3 -5 -1 -10 4 -10 25 0 9 30 -16 31 l-28 2 28 4 c29 5 38 33 10 33 -15 0
-16 -2 -3 -10 12 -8 11 -10 -5 -10 -14 0 -21 7 -22 21 -2 17 2 20 23 15 14 -4
24 -2 24 4 0 5 -12 11 -27 11 l-28 2 28 4 c35 6 36 33 1 33 -14 0 -23 4 -20 9
3 5 15 7 26 4 11 -3 20 0 20 6 0 6 -12 12 -27 12 l-28 2 28 4 c15 2 27 11 27
19 0 8 -11 15 -27 15 l-28 2 28 4 c15 2 27 9 27 14 0 5 -11 7 -24 3 -21 -5
-25 -2 -23 15 1 14 8 21 22 21 16 0 17 -2 5 -10 -13 -8 -12 -10 3 -10 29 0 20
30 -10 31 l-28 2 28 4 c34 5 36 33 2 33 -14 0 -25 5 -25 10 0 6 3 10 8 10 4 0
34 20 67 45 33 25 61 45 62 45 2 0 3 -24 3 -54z m-2050 10 c0 -2 3 -11 6 -20
5 -13 -2 -16 -39 -16 -40 0 -45 2 -40 20 4 15 14 20 39 20 19 0 34 -2 34 -4z
m2350 -81 c0 -43 -1 -45 -30 -45 -29 0 -30 2 -30 45 0 43 1 45 30 45 29 0 30
-2 30 -45z m-2330 -60 l0 -85 -55 0 c-30 0 -55 5 -55 10 0 6 18 10 40 10 29 0
40 4 40 15 0 10 -9 15 -27 14 l-28 -1 25 -8 c23 -7 22 -8 -11 -9 -25 -1 -36 3
-36 14 0 11 11 15 39 15 52 0 48 20 -4 22 l-43 1 43 4 c28 3 42 9 42 19 0 10
-13 15 -42 16 l-43 1 43 4 c27 3 42 9 42 18 0 9 -15 15 -42 18 -37 3 -35 4 15
5 l57 2 0 -85z m458 68 c-32 -2 -84 -2 -115 0 -32 2 -6 3 57 3 63 0 89 -1 58
-3z m-208 -83 l0 -70 -75 0 -75 0 0 70 0 70 75 0 75 0 0 -70z m250 0 c0 -67
-1 -70 -24 -70 -13 0 -26 7 -30 15 -6 17 -81 21 -91 5 -12 -20 17 -41 54 -39
50 3 61 1 61 -11 0 -6 -10 -8 -24 -4 -17 4 -27 0 -35 -13 -11 -17 -11 -17 -22
0 -8 13 -18 17 -35 13 -14 -4 -24 -2 -24 4 0 5 5 10 10 10 6 0 10 5 10 10 0 6
-11 10 -25 10 -24 0 -25 2 -25 70 l0 70 100 0 100 0 0 -70z m192 -1 c18 -26
33 -37 43 -33 8 4 15 1 15 -6 0 -6 -4 -8 -10 -5 -5 3 -10 1 -10 -4 0 -7 -29
-11 -75 -11 l-75 0 31 42 30 43 -23 6 c-18 5 -15 7 12 6 29 0 40 -7 62 -38z
m55 21 c1 -14 -4 -20 -20 -20 -12 0 -28 9 -35 20 -11 18 -10 20 21 20 26 0 33
-4 34 -20z m1471 -107 l-2 -118 -3 108 c-4 105 -4 108 -26 105 -21 -3 -22 -8
-23 -101 0 -53 -4 -100 -7 -104 -4 -3 -7 42 -7 100 0 100 -1 107 -20 107 -19
0 -20 -7 -20 -99 0 -56 -4 -103 -10 -106 -6 -4 -10 35 -10 109 l0 116 65 0 65
0 -2 -117z m152 -18 l0 -125 -35 0 c-28 0 -35 4 -35 20 0 11 -7 20 -15 20 -12
0 -15 18 -15 105 l0 105 50 0 50 0 0 -125z m-230 11 c0 -53 -4 -98 -10 -101
-6 -4 -10 30 -10 94 0 61 4 101 10 101 6 0 10 -38 10 -94z m60 0 c0 -53 -4
-98 -10 -101 -6 -4 -10 30 -10 94 0 61 4 101 10 101 6 0 10 -38 10 -94z m-960
-18 c0 -50 -2 -53 -25 -53 -23 0 -25 3 -25 53 0 49 2 52 25 52 23 0 25 -3 25
-52z m-500 -20 l0 -63 -62 0 c-35 0 -72 -3 -83 -7 -19 -7 -20 -3 -21 62 l-2
70 84 0 84 0 0 -62z m-420 33 c0 -11 6 -22 13 -24 6 -3 -122 -6 -285 -6 l-298
-1 4 23 c3 12 5 23 5 25 1 1 127 2 281 2 269 0 280 -1 280 -19z m240 -6 c0
-24 -3 -25 -52 -25 -35 0 -48 3 -39 9 8 5 11 16 8 25 -5 13 1 16 38 16 41 0
45 -2 45 -25z m900 -35 c0 -23 -4 -30 -20 -30 -16 0 -20 7 -20 30 0 23 4 30
20 30 16 0 20 -7 20 -30z m-900 -10 c0 -7 -158 -10 -455 -10 -297 0 -455 3
-455 10 0 7 158 10 455 10 297 0 455 -3 455 -10z m793 -20 c5 -18 14 -20 86
-20 74 0 81 2 81 20 0 16 7 20 30 20 l30 0 0 -115 c0 -105 -2 -115 -19 -115
-14 0 -17 6 -13 25 2 15 0 25 -7 25 -6 0 -11 7 -11 15 0 11 -12 15 -45 15 -33
0 -45 -4 -45 -15 0 -8 -5 -15 -11 -15 -7 0 -9 -10 -7 -25 4 -21 1 -25 -18 -25
-19 0 -24 5 -24 25 0 23 -4 25 -45 25 -41 0 -45 -2 -45 -25 0 -18 -5 -25 -20
-25 -24 0 -26 13 -5 30 30 25 7 78 -29 64 -18 -7 -22 -59 -6 -69 18 -11 10
-25 -15 -25 -25 0 -25 0 -25 95 l0 95 55 0 c48 0 55 2 55 20 0 14 7 20 24 20
15 0 26 -7 29 -20z m-793 -10 c0 -7 -158 -10 -455 -10 -297 0 -455 3 -455 10
0 7 158 10 455 10 297 0 455 -3 455 -10z m-540 -110 c0 -73 -3 -90 -15 -90
-11 0 -15 11 -15 41 0 57 -42 99 -100 99 -47 0 -84 -16 -74 -32 4 -7 3 -8 -4
-4 -16 9 -32 -26 -32 -69 0 -25 -4 -35 -12 -32 -9 3 -12 28 -11 88 1 46 3 85
3 87 0 1 59 2 130 2 l130 0 0 -90z m270 0 c0 -73 -3 -90 -15 -90 -11 0 -15 11
-15 40 0 58 -41 101 -96 102 -23 0 -51 -5 -62 -11 -28 -15 -52 -62 -52 -101 0
-16 -4 -30 -10 -30 -6 0 -10 37 -10 90 l0 90 130 0 130 0 0 -90z m270 84 c0
-7 -38 -41 -64 -55 -12 -7 -16 -7 -12 -1 9 16 -11 24 -54 24 -43 -1 -80 -16
-80 -34 0 -6 7 -5 18 3 15 13 16 12 3 -3 -7 -10 -17 -15 -22 -12 -11 6 -29
-38 -29 -72 0 -13 -4 -24 -10 -24 -6 0 -10 37 -10 90 l0 90 130 0 c72 0 130
-3 130 -6z m156 -22 c-12 -13 -18 -13 -30 -3 -22 18 -12 29 20 23 23 -4 24 -6
10 -20z m-78 1 c-15 -14 -19 -14 -35 -2 -17 13 -17 13 -4 -4 13 -16 11 -22
-21 -53 -31 -30 -37 -32 -48 -18 -11 12 -10 18 3 31 14 14 18 14 33 2 15 -12
16 -12 10 9 -10 31 9 52 47 52 29 0 30 -1 15 -17z m142 -3 c0 -5 -6 -11 -12
-14 -10 -5 -10 -7 0 -12 17 -8 15 -59 -3 -74 -12 -10 -15 -9 -15 4 0 11 4 14
13 10 9 -6 9 -4 1 7 -17 21 -15 99 3 92 7 -3 13 -9 13 -13z m1510 5 c0 -11 12
-15 50 -15 l50 0 0 -70 0 -70 -30 0 c-35 0 -38 12 -10 40 22 22 25 42 10 71
-14 25 -56 25 -70 -1 -13 -24 -4 -66 16 -74 8 -3 14 -12 14 -21 0 -11 -11 -15
-44 -15 -52 0 -67 15 -37 36 25 18 28 65 7 84 -8 6 -25 10 -38 8 -18 -2 -24
-10 -26 -39 -2 -23 2 -40 12 -49 30 -24 19 -40 -29 -40 -48 0 -59 16 -29 40
10 9 14 26 12 49 -2 29 -8 37 -26 39 -13 2 -30 -2 -38 -8 -21 -19 -18 -66 7
-84 26 -17 17 -36 -17 -36 -24 0 -24 2 -24 85 l0 85 120 0 c100 0 120 -2 120
-15z m-1207 -2 c-29 -2 -78 -2 -110 0 -32 2 -8 3 52 3 61 0 87 -1 58 -3z
m-404 -17 c18 -22 -13 -43 -36 -25 -16 13 -17 12 -4 -4 19 -24 0 -47 -24 -27
-14 12 -13 16 11 42 31 32 37 33 53 14z m61 -12 c0 -22 -3 -24 -14 -15 -12 10
-13 8 -9 -8 6 -24 -24 -42 -37 -21 -5 8 4 23 24 41 17 16 32 29 34 29 1 0 2
-12 2 -26z m74 10 c9 -3 16 -11 16 -16 0 -6 8 -17 18 -24 19 -14 10 -38 -21
-58 -26 -17 -46 9 -25 31 15 14 19 14 35 2 17 -13 17 -13 3 6 -8 11 -16 22
-17 24 -1 2 -9 -2 -18 -9 -10 -8 -15 -9 -15 -1 0 6 5 11 12 11 9 0 9 3 0 12
-22 22 -16 33 12 22z m316 -66 c0 -39 -4 -68 -10 -68 -5 0 -10 9 -10 20 0 13
-7 20 -20 20 -13 0 -20 -7 -20 -20 0 -13 -7 -20 -20 -20 -23 0 -27 25 -5 34
19 7 19 50 0 66 -8 6 -23 9 -35 5 -24 -8 -28 -56 -5 -75 21 -17 19 -30 -5 -30
-13 0 -20 7 -20 20 0 13 -7 20 -20 20 -13 0 -20 -7 -20 -20 0 -11 -4 -20 -10
-20 -6 0 -10 29 -10 68 l0 67 105 0 105 0 0 -67z m-1280 51 c-11 -8 -8 -9 15
-5 18 4 42 0 60 -9 l30 -15 -24 20 c-13 11 -19 20 -14 20 5 0 20 -12 34 -27
13 -14 19 -23 13 -20 -8 5 -10 -7 -6 -38 l5 -45 -77 0 -76 0 0 33 c0 18 7 43
16 55 8 12 12 22 9 22 -3 0 -3 5 0 10 3 6 12 10 18 10 7 0 6 -4 -3 -11z m375
-14 c19 -18 25 -34 24 -62 -1 -25 -3 -30 -6 -13 -9 58 -15 70 -41 84 -15 9
-21 15 -14 16 7 0 24 -11 37 -25z m235 17 c-7 -3 -6 -8 4 -16 14 -10 14 -16
-1 -58 l-15 -48 -49 0 c-45 0 -49 2 -49 24 0 13 -2 30 -3 38 -2 7 -2 10 0 7 2
-4 16 5 31 20 15 14 24 28 20 31 -4 3 11 5 33 5 22 0 35 -1 29 -3z m-247 -29
c10 -10 17 -31 17 -55 l0 -38 -75 0 -75 0 0 33 c0 74 78 109 133 60z m1925 -7
c2 -16 -1 -33 -7 -39 -8 -8 -11 -3 -11 19 0 21 -3 25 -9 15 -5 -8 -7 -20 -4
-28 3 -7 0 -13 -5 -13 -15 0 -25 36 -17 61 10 32 49 21 53 -15z m108 8 c5 -18
1 -31 -11 -42 -16 -16 -17 -15 -11 11 5 22 3 28 -6 24 -7 -2 -12 -14 -11 -26
2 -13 -1 -20 -7 -16 -11 7 -14 58 -3 68 16 16 43 6 49 -19z m102 14 c17 -17
15 -43 -5 -59 -15 -13 -16 -11 -9 14 5 22 4 28 -6 24 -7 -2 -12 -14 -11 -26 2
-13 -1 -20 -7 -16 -11 7 -14 58 -3 68 10 11 28 8 41 -5z m-1303 -29 c4 -12 2
-26 -4 -32 -8 -8 -11 -4 -11 14 0 18 -2 21 -9 9 -6 -8 -7 -18 -4 -24 3 -5 1
-6 -5 -2 -13 8 -16 39 -5 49 13 14 32 7 38 -14z m-305 -21 c0 -30 -1 -31 -17
-16 -13 14 -14 20 -3 32 18 22 20 20 20 -16z m-195 -18 c16 0 27 -27 15 -35
-14 -9 -39 6 -34 20 3 7 1 16 -5 20 -6 3 -11 1 -11 -5 0 -7 -7 -9 -17 -6 -16
6 -16 6 0 -11 15 -18 15 -19 -3 -20 -27 -2 -26 31 2 59 l22 22 9 -22 c6 -12
16 -22 22 -22z m64 27 c8 -11 6 -18 -8 -31 -18 -17 -20 -17 -30 2 -16 31 15
55 38 29z m69 -10 c2 -10 -3 -17 -12 -17 -18 0 -29 16 -21 31 9 14 29 6 33
-14z m589 7 c3 -8 0 -21 -7 -27 -10 -10 -12 -8 -7 5 3 10 2 20 -3 23 -5 3 -11
-3 -13 -12 -4 -14 -5 -13 -6 5 -1 26 26 31 36 6z m203 -15 c-11 -7 -5 -9 24
-7 22 2 41 -2 43 -7 2 -6 -20 -10 -52 -10 -57 0 -67 7 -37 24 22 14 41 14 22
0z m-831 -35 c-6 -8 -22 -13 -35 -12 l-23 2 21 23 c16 17 24 20 35 12 10 -9
10 -15 2 -25z m85 -5 c-8 -13 -30 -11 -43 4 -18 23 8 41 31 21 9 -9 15 -21 12
-25z m154 8 c2 -11 -3 -17 -17 -17 -23 0 -35 15 -26 31 10 15 39 6 43 -14z
m482 3 c0 -16 -7 -20 -30 -20 -23 0 -30 4 -30 20 0 16 7 20 30 20 23 0 30 -4
30 -20z"/>
<path d="M1457 1390 l-18 -30 46 0 46 0 -21 30 c-12 17 -25 30 -29 30 -3 0
-15 -13 -24 -30z m42 -2 c12 -16 11 -18 -13 -18 -24 0 -26 2 -16 21 7 11 13
19 14 17 1 -1 8 -11 15 -20z"/>
<path d="M1050 1173 c0 -5 41 -8 90 -8 50 0 90 3 90 8 0 4 -40 7 -90 7 -49 0
-90 -3 -90 -7z"/>
<path d="M1050 1135 c0 -13 13 -15 85 -13 48 2 85 7 85 13 0 6 -37 11 -85 13
-72 2 -85 0 -85 -13z m133 -2 c-24 -2 -62 -2 -85 0 -24 2 -5 4 42 4 47 0 66
-2 43 -4z"/>
<path d="M1050 1103 c0 -5 41 -8 90 -8 50 0 90 3 90 8 0 4 -40 7 -90 7 -49 0
-90 -3 -90 -7z"/>
<path d="M1050 1065 c0 -13 13 -15 85 -13 48 2 85 7 85 13 0 6 -37 11 -85 13
-72 2 -85 0 -85 -13z m128 -2 c-21 -2 -57 -2 -80 0 -24 2 -7 4 37 4 44 0 63
-2 43 -4z"/>
<path d="M1050 1028 c0 -5 41 -8 90 -8 50 0 90 3 90 8 0 4 -40 7 -90 7 -49 0
-90 -3 -90 -7z"/>
<path d="M1050 995 c0 -13 13 -15 85 -13 48 2 85 7 85 13 0 6 -37 11 -85 13
-72 2 -85 0 -85 -13z m133 -2 c-24 -2 -62 -2 -85 0 -24 2 -5 4 42 4 47 0 66
-2 43 -4z"/>
<path d="M1050 958 c0 -5 41 -8 90 -8 50 0 90 3 90 8 0 4 -40 7 -90 7 -49 0
-90 -3 -90 -7z"/>
<path d="M1050 925 c0 -13 13 -15 85 -13 48 2 85 7 85 13 0 6 -37 11 -85 13
-72 2 -85 0 -85 -13z m128 -2 c-21 -2 -57 -2 -80 0 -24 2 -7 4 37 4 44 0 63
-2 43 -4z"/>
<path d="M1640 1275 c0 -11 11 -15 40 -15 29 0 40 4 40 15 0 11 -11 15 -40 15
-29 0 -40 -4 -40 -15z"/>
<path d="M1640 1235 c0 -11 11 -15 40 -15 29 0 40 4 40 15 0 11 -11 15 -40 15
-29 0 -40 -4 -40 -15z"/>
<path d="M1640 1195 c0 -11 11 -15 40 -15 29 0 40 4 40 15 0 11 -11 15 -40 15
-29 0 -40 -4 -40 -15z"/>
<path d="M1788 1053 c6 -2 12 -9 12 -14 0 -6 -4 -7 -10 -4 -5 3 -10 1 -10 -4
0 -17 50 -13 56 4 4 8 10 15 16 15 5 0 6 -4 3 -10 -3 -5 -1 -10 4 -10 6 0 11
7 11 15 0 8 -9 15 -20 15 -11 0 -20 -7 -20 -15 0 -8 -5 -15 -11 -15 -6 0 -9 7
-5 15 4 11 -1 15 -17 14 -12 0 -16 -3 -9 -6z"/>
<path d="M1790 900 c13 -9 13 -11 0 -20 -10 -7 11 -10 70 -10 59 0 80 3 70 10
-13 9 -13 11 0 20 10 7 -11 10 -70 10 -59 0 -80 -3 -70 -10z"/>
<path d="M2110 1255 c0 -12 14 -15 70 -15 56 0 70 3 70 15 0 12 -14 15 -70 15
-56 0 -70 -3 -70 -15z m103 -2 c-18 -2 -48 -2 -65 0 -18 2 -4 4 32 4 36 0 50
-2 33 -4z"/>
<path d="M2110 1130 c0 -13 7 -20 20 -20 13 0 20 7 20 20 0 13 -7 20 -20 20
-13 0 -20 -7 -20 -20z"/>
<path d="M2160 1130 c0 -13 7 -20 20 -20 13 0 20 7 20 20 0 13 -7 20 -20 20
-13 0 -20 -7 -20 -20z"/>
<path d="M2210 1130 c0 -13 7 -20 20 -20 13 0 20 7 20 20 0 13 -7 20 -20 20
-13 0 -20 -7 -20 -20z"/>
<path d="M2110 1080 c0 -13 7 -20 20 -20 13 0 20 7 20 20 0 13 -7 20 -20 20
-13 0 -20 -7 -20 -20z"/>
<path d="M2160 1080 c0 -13 7 -20 20 -20 13 0 20 7 20 20 0 13 -7 20 -20 20
-13 0 -20 -7 -20 -20z"/>
<path d="M2210 1080 c0 -13 7 -20 20 -20 13 0 20 7 20 20 0 13 -7 20 -20 20
-13 0 -20 -7 -20 -20z"/>
<path d="M2110 1020 c0 -13 7 -20 20 -20 14 0 20 6 19 23 -1 16 -2 18 -6 5 -2
-10 -9 -18 -15 -18 -5 0 -8 7 -4 15 3 8 1 15 -4 15 -6 0 -10 -9 -10 -20z"/>
<path d="M2160 1020 c0 -13 7 -20 20 -20 14 0 20 6 19 23 -1 16 -2 18 -6 5 -2
-10 -9 -18 -15 -18 -5 0 -8 7 -4 15 3 8 1 15 -4 15 -6 0 -10 -9 -10 -20z"/>
<path d="M2110 970 c0 -13 7 -20 20 -20 13 0 20 7 20 20 0 13 -7 20 -20 20
-13 0 -20 -7 -20 -20z"/>
<path d="M2160 970 c0 -13 7 -20 20 -20 13 0 20 7 20 20 0 13 -7 20 -20 20
-13 0 -20 -7 -20 -20z"/>
<path d="M2210 970 c0 -13 7 -20 20 -20 13 0 20 7 20 20 0 13 -7 20 -20 20
-13 0 -20 -7 -20 -20z"/>
<path d="M2110 920 c0 -13 7 -20 20 -20 13 0 20 7 20 20 0 13 -7 20 -20 20
-13 0 -20 -7 -20 -20z"/>
<path d="M2160 920 c0 -13 7 -20 20 -20 13 0 20 7 20 20 0 13 -7 20 -20 20
-13 0 -20 -7 -20 -20z"/>
<path d="M2217 933 c-14 -13 -6 -33 13 -33 13 0 20 7 20 20 0 19 -20 27 -33
13z"/>
<path d="M2110 860 c0 -13 7 -20 20 -20 13 0 20 7 20 20 0 13 -7 20 -20 20
-13 0 -20 -7 -20 -20z"/>
<path d="M2160 860 c0 -13 7 -20 20 -20 13 0 20 7 20 20 0 13 -7 20 -20 20
-13 0 -20 -7 -20 -20z"/>
<path d="M2210 860 c0 -13 7 -20 20 -20 13 0 20 7 20 20 0 13 -7 20 -20 20
-13 0 -20 -7 -20 -20z"/>
<path d="M2110 810 c0 -13 7 -20 20 -20 13 0 20 7 20 20 0 13 -7 20 -20 20
-13 0 -20 -7 -20 -20z"/>
<path d="M2160 810 c0 -13 7 -20 20 -20 13 0 20 7 20 20 0 13 -7 20 -20 20
-13 0 -20 -7 -20 -20z"/>
<path d="M2210 810 c0 -13 7 -20 20 -20 13 0 20 7 20 20 0 13 -7 20 -20 20
-13 0 -20 -7 -20 -20z"/>
<path d="M2117 774 c-16 -16 -7 -44 14 -44 15 0 20 5 17 22 -3 22 -19 33 -31
22z"/>
<path d="M2164 766 c-7 -19 3 -36 22 -36 10 0 14 8 12 22 -4 26 -26 36 -34 14z"/>
<path d="M2214 765 c-7 -18 3 -35 22 -35 8 0 14 10 14 25 0 27 -27 35 -36 10z"/>
<path d="M2110 700 c0 -13 7 -20 20 -20 13 0 20 7 20 20 0 13 -7 20 -20 20
-13 0 -20 -7 -20 -20z"/>
<path d="M2160 700 c0 -13 7 -20 20 -20 13 0 20 7 20 20 0 13 -7 20 -20 20
-13 0 -20 -7 -20 -20z"/>
<path d="M2210 700 c0 -13 7 -20 20 -20 13 0 20 7 20 20 0 13 -7 20 -20 20
-13 0 -20 -7 -20 -20z"/>
<path d="M2110 650 c0 -13 7 -20 20 -20 13 0 20 7 20 20 0 13 -7 20 -20 20
-13 0 -20 -7 -20 -20z"/>
<path d="M2160 650 c0 -13 7 -20 20 -20 13 0 20 7 20 20 0 13 -7 20 -20 20
-13 0 -20 -7 -20 -20z"/>
<path d="M2210 650 c0 -13 7 -20 20 -20 13 0 20 7 20 20 0 13 -7 20 -20 20
-13 0 -20 -7 -20 -20z"/>
<path d="M2110 590 c0 -13 7 -20 20 -20 13 0 20 7 20 20 0 13 -7 20 -20 20
-13 0 -20 -7 -20 -20z"/>
<path d="M2160 590 c0 -13 7 -20 20 -20 13 0 20 7 20 20 0 13 -7 20 -20 20
-13 0 -20 -7 -20 -20z"/>
<path d="M2210 590 c0 -13 7 -20 20 -20 13 0 20 7 20 20 0 13 -7 20 -20 20
-13 0 -20 -7 -20 -20z"/>
<path d="M2110 540 c0 -13 7 -20 20 -20 13 0 20 7 20 20 0 13 -7 20 -20 20
-13 0 -20 -7 -20 -20z"/>
<path d="M2160 540 c0 -13 7 -20 20 -20 13 0 20 7 20 20 0 13 -7 20 -20 20
-13 0 -20 -7 -20 -20z"/>
<path d="M2210 540 c0 -13 7 -20 20 -20 13 0 20 7 20 20 0 13 -7 20 -20 20
-13 0 -20 -7 -20 -20z"/>
<path d="M2112 488 c5 -34 38 -37 38 -4 0 20 -5 26 -21 26 -15 0 -20 -5 -17
-22z"/>
<path d="M2164 495 c-7 -18 3 -35 22 -35 8 0 14 10 14 25 0 27 -27 35 -36 10z"/>
<path d="M2214 495 c-7 -18 3 -35 22 -35 8 0 14 10 14 25 0 27 -27 35 -36 10z"/>
<path d="M1620 1090 c0 -18 7 -20 60 -20 53 0 60 2 60 20 0 18 -7 20 -60 20
-53 0 -60 -2 -60 -20z"/>
<path d="M1620 1035 c0 -12 13 -15 60 -15 47 0 60 3 60 15 0 12 -13 15 -60 15
-47 0 -60 -3 -60 -15z"/>
<path d="M1620 981 c0 -16 7 -19 57 -17 46 1 58 4 61 19 3 15 -5 17 -57 17
-53 0 -61 -2 -61 -19z"/>
<path d="M1620 930 c0 -18 7 -20 60 -20 53 0 60 2 60 20 0 18 -7 20 -60 20
-53 0 -60 -2 -60 -20z m105 0 c-3 -5 -26 -10 -51 -10 -24 0 -44 5 -44 10 0 6
23 10 51 10 31 0 48 -4 44 -10z"/>
<path d="M1620 880 c0 -18 7 -20 60 -20 53 0 60 2 60 20 0 18 -7 20 -60 20
-53 0 -60 -2 -60 -20z m110 0 c0 -5 -22 -10 -50 -10 -27 0 -50 5 -50 10 0 6
23 10 50 10 28 0 50 -4 50 -10z"/>
<path d="M1620 825 c0 -12 13 -15 60 -15 47 0 60 3 60 15 0 12 -13 15 -60 15
-47 0 -60 -3 -60 -15z"/>
<path d="M680 1080 c0 -11 7 -20 15 -20 8 0 15 9 15 20 0 11 -7 20 -15 20 -8
0 -15 -9 -15 -20z"/>
<path d="M740 1080 c0 -11 6 -20 14 -20 9 0 14 9 13 20 -1 11 -7 20 -14 20 -7
0 -13 -9 -13 -20z"/>
<path d="M1270 740 c0 -5 18 -10 40 -10 22 0 40 5 40 10 0 6 -18 10 -40 10
-22 0 -40 -4 -40 -10z"/>
<path d="M1270 710 c0 -5 18 -10 40 -10 22 0 40 5 40 10 0 6 -18 10 -40 10
-22 0 -40 -4 -40 -10z"/>
<path d="M1270 680 c0 -5 18 -10 40 -10 22 0 40 5 40 10 0 6 -18 10 -40 10
-22 0 -40 -4 -40 -10z"/>
<path d="M1270 650 c0 -5 18 -10 40 -10 22 0 40 5 40 10 0 6 -18 10 -40 10
-22 0 -40 -4 -40 -10z"/>
<path d="M780 855 c0 -12 16 -15 85 -15 69 0 85 3 85 15 0 12 -16 15 -85 15
-69 0 -85 -3 -85 -15z m128 -2 c-21 -2 -57 -2 -80 0 -24 2 -7 4 37 4 44 0 63
-2 43 -4z"/>
<path d="M780 815 c0 -12 16 -15 85 -15 69 0 85 3 85 15 0 12 -16 15 -85 15
-69 0 -85 -3 -85 -15z m128 -2 c-21 -2 -57 -2 -80 0 -24 2 -7 4 37 4 44 0 63
-2 43 -4z"/>
<path d="M1095 810 c-9 -15 4 -30 26 -30 12 0 19 7 19 20 0 21 -33 29 -45 10z"/>
<path d="M2742 705 c-1 -16 3 -25 13 -25 10 0 14 9 13 25 -1 14 -7 25 -13 25
-6 0 -12 -11 -13 -25z"/>
<path d="M2790 705 c0 -15 6 -25 14 -25 9 0 13 10 12 25 -1 33 -26 33 -26 0z"/>
<path d="M1047 733 c-16 -15 -6 -33 18 -33 18 0 25 5 25 20 0 20 -28 28 -43
13z"/>
<path d="M1100 720 c0 -13 7 -20 20 -20 13 0 20 7 20 20 0 13 -7 20 -20 20
-13 0 -20 -7 -20 -20z"/>
<path d="M1150 720 c0 -13 7 -20 20 -20 13 0 20 7 20 20 0 13 -7 20 -20 20
-13 0 -20 -7 -20 -20z"/>
<path d="M1667 604 c-14 -15 -6 -34 14 -34 14 0 19 5 17 17 -3 18 -20 27 -31
17z"/>
<path d="M1720 590 c0 -11 7 -20 15 -20 8 0 15 9 15 20 0 11 -7 20 -15 20 -8
0 -15 -9 -15 -20z"/>
<path d="M1777 604 c-14 -15 -6 -34 14 -34 14 0 19 5 17 17 -3 18 -20 27 -31
17z"/>
<path d="M1827 590 c-4 -15 0 -20 14 -20 12 0 19 7 19 20 0 11 -6 20 -14 20
-7 0 -16 -9 -19 -20z"/>
<path d="M1887 604 c-14 -15 -6 -34 14 -34 14 0 19 5 17 17 -3 18 -20 27 -31
17z"/>
<path d="M1937 603 c-14 -13 -6 -33 13 -33 13 0 20 7 20 20 0 19 -20 27 -33
13z"/>
<path d="M1990 591 c0 -15 6 -21 21 -21 25 0 22 33 -4 38 -12 2 -17 -3 -17
-17z"/>
<path d="M1332 1503 c-12 -2 -20 -9 -17 -14 9 -14 41 -11 55 6 13 16 10 17
-38 8z"/>
<path d="M2367 1428 c-42 -47 -31 -58 58 -58 73 0 76 1 73 22 -2 14 -19 30
-48 44 -25 13 -47 24 -50 24 -3 0 -18 -14 -33 -32z m89 -14 c6 -7 16 -14 23
-14 6 0 11 -4 11 -10 0 -12 -127 -13 -134 -1 -3 5 3 11 14 14 11 3 20 13 20
22 0 14 6 16 28 11 15 -4 32 -14 38 -22z"/>
<path d="M1776 1441 c-3 -5 -16 -7 -28 -3 -14 3 -19 2 -14 -6 10 -17 41 -15
56 3 8 9 9 15 2 15 -6 0 -13 -4 -16 -9z"/>
<path d="M722 1428 c-7 -7 -12 -17 -12 -24 0 -6 -9 -14 -21 -17 -15 -4 -20
-12 -17 -29 3 -22 7 -23 101 -26 84 -2 98 0 104 14 7 19 -51 73 -79 74 -9 0
-20 5 -23 10 -8 14 -38 13 -53 -2z m43 -8 c3 -5 15 -10 25 -10 10 0 23 -6 27
-14 4 -8 17 -15 28 -18 11 -2 20 -10 20 -18 0 -12 -17 -15 -90 -15 -73 0 -90
3 -90 15 0 8 10 16 23 18 12 2 20 8 16 13 -6 11 13 39 27 39 4 0 11 -4 14 -10z"/>
<path d="M2482 1278 c-7 -7 -12 -18 -12 -24 0 -7 -9 -16 -20 -19 -24 -8 -27
-50 -4 -59 9 -3 51 -6 94 -6 56 0 81 4 90 15 16 19 6 45 -19 52 -11 3 -22 11
-25 19 -3 8 -14 14 -25 14 -11 0 -23 5 -26 10 -8 14 -38 13 -53 -2z m53 -18
c3 -5 12 -7 20 -4 9 4 18 -1 21 -11 4 -9 18 -21 32 -26 46 -17 9 -30 -78 -27
-53 2 -85 7 -87 15 -2 6 6 13 19 15 13 2 23 10 24 18 1 8 2 18 2 23 3 10 40 9
47 -3z"/>
</g>
</svg>
