<!DOCTYPE svg PUBLIC "-//W3C//DTD SVG 1.1//EN" "http://www.w3.org/Graphics/SVG/1.1/DTD/svg11.dtd">
<!-- Uploaded to: SVG Repo, www.svgrepo.com, Transformed by: SVG Repo Mixer Tools -->
<svg fill="#525252" width="800px" height="800px" viewBox="0 0 24 24" xmlns="http://www.w3.org/2000/svg">
<g id="SVGRepo_bgCarrier" stroke-width="0"/>
<g id="SVGRepo_tracerCarrier" stroke-linecap="round" stroke-linejoin="round"/>
<g id="SVGRepo_iconCarrier">
<path d="M16.632,14.225a1,1,0,0,1,.143,1.407,6,6,0,0,1-9.55,0,1,1,0,0,1,1.55-1.264,4,4,0,0,0,6.45,0A1,1,0,0,1,16.632,14.225ZM9,12a1,1,0,0,0,1-1V10a1,1,0,0,0-2,0v1A1,1,0,0,0,9,12Zm6,0a1,1,0,0,0,1-1V10a1,1,0,0,0-2,0v1A1,1,0,0,0,15,12Zm8,0A11,11,0,1,1,2.214,7H2A1,1,0,0,1,2,5H3.521A11,11,0,0,1,23,12ZM6.356,5H17.644A8.964,8.964,0,0,0,6.356,5ZM21,12a8.947,8.947,0,0,0-1.522-5H4.522A9,9,0,1,0,21,12Z"/>
</g>
</svg>